<svg width="1024" height="1024" viewBox="0 0 1024 1024" fill="none" xmlns="http://www.w3.org/2000/svg">
  <defs>
    <clipPath id="surfaceClip">
      <rect x="36" y="36" width="952" height="952" rx="216" />
    </clipPath>
    <clipPath id="accentClip">
      <rect x="662" y="278" width="136" height="468" rx="68" />
    </clipPath>
  </defs>

  <rect width="1024" height="1024" rx="236" fill="#171A20" />

  <g clip-path="url(#surfaceClip)">
    <rect x="36" y="36" width="952" height="952" rx="216" fill="#232930" />
    <rect x="36" y="36" width="952" height="952" rx="216" stroke="#404854" stroke-width="4" />
    <circle cx="344" cy="286" r="320" fill="#0F1318" opacity="0.22" />
    <circle cx="702" cy="716" r="284" fill="#151A21" opacity="0.16" />
  </g>

  <path
    transform="translate(56 120) scale(0.76)"
    fill-rule="evenodd"
    clip-rule="evenodd"
    d="M183.333 512C183.333 363.852 294.801 260.889 435.556 260.889C495.333 260.889 547.111 282.815 592.889 329.333C638.667 282.815 690.444 260.889 750.222 260.889C890.977 260.889 1002.44 363.852 1002.44 512C1002.44 660.148 890.977 763.111 750.222 763.111C690.444 763.111 638.667 741.185 592.889 694.667C547.111 741.185 495.333 763.111 435.556 763.111C294.801 763.111 183.333 660.148 183.333 512ZM435.556 616C511.462 616 561.047 564.673 592.889 525.11C624.73 564.673 674.316 616 750.222 616C805.824 616 855.778 575.212 855.778 512C855.778 448.788 805.824 408 750.222 408C674.316 408 624.73 459.327 592.889 498.89C561.047 459.327 511.462 408 435.556 408C379.954 408 330 448.788 330 512C330 575.212 379.954 616 435.556 616Z"
    fill="#EEE6DA"
  />
  <g clip-path="url(#accentClip)">
    <path
      transform="translate(56 120) scale(0.76)"
      fill-rule="evenodd"
      clip-rule="evenodd"
      d="M183.333 512C183.333 363.852 294.801 260.889 435.556 260.889C495.333 260.889 547.111 282.815 592.889 329.333C638.667 282.815 690.444 260.889 750.222 260.889C890.977 260.889 1002.44 363.852 1002.44 512C1002.44 660.148 890.977 763.111 750.222 763.111C690.444 763.111 638.667 741.185 592.889 694.667C547.111 741.185 495.333 763.111 435.556 763.111C294.801 763.111 183.333 660.148 183.333 512ZM435.556 616C511.462 616 561.047 564.673 592.889 525.11C624.73 564.673 674.316 616 750.222 616C805.824 616 855.778 575.212 855.778 512C855.778 448.788 805.824 408 750.222 408C674.316 408 624.73 459.327 592.889 498.89C561.047 459.327 511.462 408 435.556 408C379.954 408 330 448.788 330 512C330 575.212 379.954 616 435.556 616Z"
      fill="#B85D50"
      opacity="0.26"
    />
  </g>
</svg>
